<svg width="32" height="31" viewBox="0 0 32 31" fill="none" xmlns="http://www.w3.org/2000/svg">
<g id="icon/document">
<path id="Vector" d="M13.0667 5.01311V5.0101H24.7978C25.3867 5.0101 25.8667 5.46602 25.8667 6.00411V24.0565C25.8664 24.3202 25.7547 24.573 25.556 24.7594C25.3574 24.9458 25.0882 25.0505 24.8075 25.0505H7.72585C7.58577 25.0496 7.44726 25.0228 7.31822 24.9716C7.18918 24.9203 7.07214 24.8458 6.97378 24.7521C6.87543 24.6584 6.79768 24.5474 6.74498 24.4255C6.69229 24.3035 6.66567 24.1731 6.66665 24.0415V11.0222L13.0667 5.01311ZM9.68532 11.0222H13.0667V7.84582L9.68532 11.0222ZM15.2 7.01414V12.0242C15.2 12.29 15.0876 12.5449 14.8876 12.7328C14.6875 12.9207 14.4162 13.0263 14.1333 13.0263H8.79999V23.0465H23.7333V7.01414H15.2Z" fill="#00B5E2"/>
</g>
</svg>
