<svg width="366" height="155" viewBox="0 0 366 155" fill="none" xmlns="http://www.w3.org/2000/svg">
<rect x="0.5" y="52.6549" width="365" height="101.48" rx="7.5" fill="#041C2C" stroke="#333F48"/>
<rect x="18.3" y="77.7751" width="51.24" height="51.24" rx="25.62" fill="#333F48"/>
<rect x="93.3299" y="77.7751" width="51.24" height="18.3" rx="9.15" fill="#333F48"/>
<rect x="153.72" y="83.2653" width="7.32" height="7.32" rx="3.66" fill="#73CF67"/>
<rect x="93.3299" y="110.715" width="168.36" height="7.32" rx="3.66" fill="#333F48"/>
<rect x="93.3299" y="121.695" width="124.44" height="7.32" rx="3.66" fill="#333F48"/>
<mask id="mask0_95_134" style="mask-type:alpha" maskUnits="userSpaceOnUse" x="0" y="0" width="366" height="154">
<rect x="0.5" y="0.5" width="365" height="152.72" rx="7.5" fill="#041C2C" stroke="#333F48"/>
</mask>
<g mask="url(#mask0_95_134)">
<path d="M297.353 9.49997C299.755 8.13469 302.635 7.98454 304.647 8.1041C304.128 7.56745 303.11 7.37281 303.11 7.37281C304.358 7.18651 307.147 8.42665 307.147 8.42665C324.516 1.73097 327.246 27.3125 326.882 33.2574C326.521 39.1996 332.72 41.1404 341.755 45.823C358.997 54.757 360.512 66.722 360.512 66.722C360.378 66.7998 360.236 66.8916 360.089 66.9945C359.233 65.5458 357.473 62.8236 355.989 62.412C356.044 62.5427 357.743 66.1603 358.377 68.2318C353.289 72.1024 343.773 80.6778 337.143 86.759C337.174 85.5717 337.126 83.8839 336.693 82.9941L335.873 87.9296C332.322 91.1941 329.876 93.4881 329.876 93.4881C330.315 88.686 308.161 63.3408 296.602 55.7525C293.789 51.6094 292.788 44.2909 292.713 43.7153C293.199 49.5184 294.192 52.7745 295.079 54.6069C285.288 45.5894 290.987 13.1203 297.353 9.49997Z" fill="#2C5697"/>
<path d="M297.283 56.1252C297.225 56.1502 302.863 59.0782 307.105 57.9187C311.094 56.8315 313.702 51.6568 313.646 51.6457C311.956 51.3092 311.469 48.9874 311.506 39.0078L310.741 39.158L297.897 41.7022C297.897 41.7022 298.189 45.7452 298.198 49.5519C298.209 52.7523 298.014 55.7832 297.283 56.1252Z" fill="#DBE2E9"/>
<path d="M311.806 13.69C311.806 13.69 305.47 6.94423 297.517 13.3452C297.517 13.3452 302.145 12.5444 311.806 13.69Z" fill="#003C71"/>
<path d="M297.9 41.7021C297.9 41.7021 298.192 45.7451 298.2 49.5517C305.387 49.3487 309.184 42.7921 310.741 39.1578L297.9 41.7021Z" fill="#D6DADE"/>
<path d="M312.067 37.7619C312.067 37.7619 315.834 31.8086 316.738 26.7201C317.383 23.0859 315.534 9.61942 302.001 11.5575C302.001 11.5575 298.07 11.944 294.378 14.441C291.44 16.4263 287.2 20.7112 291.94 32.4621L293.172 36.4328L312.067 37.7619Z" fill="#2C5697"/>
<path d="M246.712 274.505L253.52 274.714L260.89 274.939C260.89 274.939 277.909 255.983 287.459 225.6C287.681 224.893 287.914 224.179 288.165 223.456C293.388 208.218 304.222 189.09 309.929 171.776C310.838 169.017 311.653 166.423 312.387 163.965C312.62 163.178 312.851 162.405 313.068 161.643C317.274 147.023 318.492 137.427 319.615 127.169L278.396 127.5C278.393 127.503 271.738 197.532 246.712 274.505Z" fill="#DBE2E9"/>
<path d="M283.895 103.609C283.994 123.167 281.133 131.558 281.133 131.558C281.133 131.558 298.077 140.498 318.216 133.917C318.453 133.84 334.89 129.942 334.89 129.942C334.554 129.149 331.556 115.97 331.228 115.244C326.976 105.76 323.749 101.602 323.244 98.6883C322.31 93.2465 322.289 87.6134 322.756 82.3019C323.984 68.2414 327.64 56.5678 327.64 56.5678C322.153 55.2704 316.873 53.0527 311.161 50.8294C309.848 52.5287 305.975 54.2447 302.489 54.1643C298.477 54.0728 297.225 52.3097 297.372 50.3248C293.096 52.7948 289.698 55.1456 289.698 55.1456C286.066 61.6991 278.696 68.064 278.162 78.1187C278.031 80.5915 283.893 103.06 283.895 103.609Z" fill="#2C5697"/>
<path d="M319.609 106.001C321.411 108.55 324.866 124.055 333.459 126.004C329.031 114.954 325.67 110.11 325.144 106.713C324.171 100.37 324.149 93.8105 324.636 87.6209C321.758 82.5769 319.612 79.1206 319.612 79.1206C319.387 78.3059 315.039 64.8645 313.646 76.8794C312.256 88.8944 317.597 103.148 319.609 106.001Z" fill="#5F9AA8"/>
<path d="M295.498 45.3086C295.498 45.3086 312.501 45.5894 312.512 34.9953C312.523 24.4012 314.725 17.3023 303.872 16.6767C293.016 16.0483 290.903 20.0885 290.038 23.6254C289.177 27.1596 291.075 44.9638 295.498 45.3086Z" fill="#DBE2E9"/>
<path d="M290.545 17.7334C293.169 14.5524 295.154 15.2447 296.266 16.1985C299.941 10.7068 311.553 18.6482 311.553 18.6482C312.69 26.2504 318.169 30.6048 318.169 30.6048C318.169 30.6048 315.07 32.5206 307.925 30.6826C302.301 29.2367 298.223 21.2314 296.738 17.8863C295.726 18.7845 293.594 20.8616 292.955 22.897C292.107 25.5941 291.726 31.147 290.108 30.9579C290.111 30.9607 286.602 22.5132 290.545 17.7334Z" fill="#2C5697"/>
<path d="M227.152 62.8902C227.152 62.8902 238.313 69.1326 242.3 70.9317C243.718 71.5712 246.287 72.7669 248.911 73.9931C250.495 74.7328 252.1 75.4863 253.487 76.1398C255.83 77.2409 258.619 76.6375 260.303 74.6688C266.347 67.6117 281.987 52.3128 298.139 50.3942L298.195 50.3691C298.195 50.3691 298.192 50.3747 298.187 50.3858C298.192 50.3858 298.2 50.383 298.206 50.383L298.117 50.5582C297.208 52.8161 288.354 74.9441 288.081 79.6127C287.792 84.5316 286.925 160.058 286.925 160.058C286.925 160.058 287.503 163.531 280.85 162.083C274.195 160.637 272.46 159.188 272.46 159.188C272.46 159.188 278.824 112.599 277.089 96.3937C276.747 93.2127 277.056 89.6396 277.767 85.9497C267.929 91.9086 256.331 94.5612 256.331 94.5612C256.331 94.5612 252.005 92.6732 245.283 88.5079C242.461 86.7561 239.189 83.9644 235.967 81.0114C232.075 77.4439 225.378 68.8212 225.378 68.8212L227.152 62.8902Z" fill="#003C71"/>
<path d="M306.36 216.919C306.257 230.427 306.938 261.481 308.698 274.338H315.225C318.834 274.338 320.632 274.285 320.632 274.285C325.044 251.932 328.183 233.436 330.468 217.497C332.342 204.417 334.01 193.203 335.291 183.552C336.581 173.836 337.479 165.703 337.799 158.829C337.849 157.748 337.885 156.694 337.907 155.673C337.927 154.647 337.932 153.649 337.924 152.679L302.309 149.206C302.757 172.874 306.418 209.069 306.36 216.919Z" fill="#DBE2E9"/>
<path d="M313.543 158.612C313.543 158.612 316.051 167.677 324.73 166.52C333.409 165.364 345.753 160.153 345.753 160.153C345.753 160.153 342.044 148.43 337.432 133.031C331.847 114.387 324.936 90.3513 321.678 75.1915C320.763 70.9427 320.138 67.3947 319.907 64.856L312.556 50.8751C312.556 50.8751 301.97 74.9829 301.392 81.0585C300.814 87.1369 313.543 158.612 313.543 158.612Z" fill="#003C71"/>
<path d="M282.546 87.8434C286.725 88.3911 288.326 90.6128 288.84 93.6076C289.118 95.2231 289.952 96.8219 290.658 97.9509C294.82 98.1733 304.728 98.7127 313.054 99.241L313.741 110.163C306.902 109.312 298.498 107.577 288.823 104.266C288.081 104.138 287.153 103.676 285.988 102.725C279.994 97.8146 276.591 89.5924 276.58 88.4162C276.572 87.2344 278.368 87.2956 282.546 87.8434Z" fill="#DBE2E9"/>
<path d="M313.927 93.7938C314.314 103.632 316.629 122.731 337.265 132.956C337.321 132.981 337.377 133.011 337.429 133.034C331.844 114.39 324.933 90.3542 321.675 75.1943C317.889 80.8584 313.716 88.3744 313.927 93.7938Z" fill="#003360"/>
<path d="M312.556 50.8751C312.556 50.8751 330.209 52.1264 334.452 61.5804C338.694 71.0345 340.045 102.478 334.644 111.737C334.644 111.737 327.207 113.856 314.058 111.395C313.896 111.364 313.735 111.334 313.571 111.303C313.571 111.303 309.376 101.029 313.137 99.0046C313.137 99.0046 324.227 99.5829 323.07 95.9181C321.917 92.2533 312.556 50.8751 312.556 50.8751Z" fill="#003C71"/>
<path d="M216.102 55.933C225.598 54.7123 227.995 63.3516 227.995 63.3516L226.221 69.2854C223.294 69.6886 220.731 68.9267 218.37 65.5483C216.01 62.1699 215.36 63.4684 213.858 60.952C211.826 57.543 215.012 56.275 216.102 55.933Z" fill="#DBE2E9"/>
<path d="M242.3 70.9319C243.718 71.5714 246.287 72.7671 248.911 73.9933C247.507 76.4875 245.75 81.0199 245.283 88.5108C242.461 86.7591 238.808 83.8422 235.689 80.7808C230.685 75.8674 225.378 68.8242 225.378 68.8242L227.152 62.8904C227.152 62.8904 238.314 69.1328 242.3 70.9319Z" fill="#DBE2E9"/>
</g>
</svg>
