<svg width="62" height="35" viewBox="0 0 62 35" fill="none" xmlns="http://www.w3.org/2000/svg">
<path id="Vector" fill-rule="evenodd" clip-rule="evenodd" d="M43.155 30.9037L43.1769 30.8754C44.2695 29.6458 45.1789 28.2345 45.9083 26.7877C47.1089 27.5832 48.5648 28.09 50.0948 28.09C53.4801 28.09 56.5021 26.3902 57.0121 22.9173H51.0781V18.1054H62V32.5752H57.4847V29.9712C55.5188 31.8165 53.1162 32.9374 50.0948 32.9374C47.5461 32.9374 45.1789 32.2139 43.1769 30.8754C43.0682 30.8395 42.9588 30.7667 42.8495 30.6946C39.5 28.2708 37.279 24.2196 37.279 19.6251C37.279 18.2862 37.4252 17.057 37.6797 15.8627L32.2911 32.7204H27.0491L20.8231 13.3305C20.8602 13.7289 20.9324 14.1264 20.9324 14.5245H15.763C15.7258 14.3434 15.6904 14.1264 15.6168 13.9097C15.362 13.0052 14.7433 12.2817 14.3068 11.9923C14.1607 11.8833 13.9058 11.7394 13.5787 11.5942C13.1777 11.4131 12.6319 11.2323 12.0129 11.0881C11.2848 12.7526 10.7386 14.5604 10.5199 16.4422C10.7018 16.4778 10.8841 16.5143 11.1028 16.5143C11.7583 16.623 12.6319 16.6954 13.5787 16.8041C14.2697 16.8762 14.9613 16.9849 15.6168 17.1294C17.0372 17.4179 18.4208 17.8529 19.3666 18.5766C21.2237 20.0956 22.1341 22.1942 21.8428 25.3764C21.6237 27.6563 20.1676 29.827 18.6756 30.9837C18.1295 31.3459 17.1456 31.7434 16.1626 32.0694C16.7456 32.9015 18.8208 34.2759 20.1672 35H38.1168C39.7188 34.131 41.7569 32.5027 42.8488 31.2369V31.2735C42.9582 31.1648 43.0675 31.0562 43.1762 30.9106C43.1691 30.9087 43.162 30.9064 43.155 30.9037ZM12.8506 27.9813C13.7607 29.5003 14.8529 30.8754 16.1275 32.069C14.5249 32.6117 12.6319 33.046 10.5202 33.046C7.24371 33.046 4.58655 31.9245 3.13039 30.7667C1.60065 29.5372 0 26.9684 0 23.9301H5.423C5.423 26.9316 8.55439 28.1986 11.0657 28.1986C11.649 28.1986 12.2677 28.09 12.8506 27.9813ZM10.5935 21.6143C10.4105 20.6021 10.3744 19.6251 10.3744 18.6129C10.3744 17.8881 10.4105 17.1657 10.4841 16.4778C8.04403 16.1884 5.89624 15.3925 5.89624 13.8735C5.89624 11.9926 8.08049 10.9794 9.90086 10.9073C10.5567 10.8707 11.2844 10.9794 11.9761 11.1236C12.6717 9.53179 13.591 8.04598 14.7065 6.71058C13.5058 6.38524 12.0854 6.24036 10.6661 6.24036C7.57146 6.24036 4.69492 7.36223 2.80164 8.98988C1.05418 10.5089 0.472243 12.4256 0.472243 14.8142C0.472243 16.2249 1.05418 17.2743 2.54812 18.7936C3.82135 20.1319 8.04403 21.1803 10.5935 21.6143ZM29.0878 0.000104672C34.4581 -0.0180059 39.4079 2.3153 42.8492 6.02336C43.2919 6.50049 43.7035 6.9414 44.0932 7.43303C45.7522 6.66118 47.727 6.23937 49.9484 6.20447C56.3924 6.24003 60.9796 9.06199 61.9629 15.0671H56.4656C55.5188 12.6436 53.771 10.8707 49.9484 10.8707C48.6745 10.8707 47.4725 11.2689 46.4531 11.8836C45.8407 10.3087 45.0142 8.8035 44.0438 7.51041C43.6351 7.71963 43.2364 7.94774 42.8492 8.194C40.8111 9.49599 39.3178 11.3778 38.4445 13.6203L40.7371 6.20447H35.4225L29.6701 24.617L29.0146 22.6637L23.8819 6.20447H18.5663L19.986 10.5813C19.5124 9.67676 18.8576 8.91744 18.093 8.30299C17.3649 7.72411 16.5272 7.28979 15.6171 6.96479C15.3623 6.89168 15.071 6.78302 14.7804 6.71091C15.0355 6.38557 15.3265 6.05958 15.6171 5.73425C19.0027 2.22409 23.7179 0.0185446 29.0878 0.000104672ZM13.5787 22.1576C12.9588 21.9761 12.3256 21.843 11.6848 21.7595C11.4303 21.6867 11.0303 21.6508 10.6293 21.5781C10.9935 23.8574 11.7941 26.028 12.8864 27.981C13.1419 27.9458 13.36 27.9089 13.5787 27.8723C14.0152 27.8002 14.3426 27.7278 14.5616 27.6557C14.9613 27.547 15.3265 27.2941 15.6171 26.896C16.2359 26.2091 16.564 25.2315 16.4188 24.508C16.2727 24.0385 16.0181 23.6404 15.6171 23.2785C15.1075 22.7727 14.3794 22.4105 13.5787 22.1576ZM42.8495 16.6586C42.5582 17.5987 42.4127 18.6129 42.4127 19.6251C42.4127 20.6742 42.5582 21.6508 42.8495 22.5551C43.4327 24.2914 44.5247 25.7745 45.9809 26.7514C47.2048 24.2107 47.8393 21.4294 47.8374 18.6125C47.8374 16.2608 47.4006 13.9815 46.5267 11.8471C44.815 12.8958 43.5408 14.6331 42.8495 16.6586Z" fill="#757FB5"/>
</svg>
